<svg width="117" height="117" viewBox="0 0 117 117" fill="none" xmlns="http://www.w3.org/2000/svg">
<rect width="117" height="117" rx="10" fill="#003566"/>
<path d="M52.3125 34.3125C51.7917 37.8333 51.3958 41.3333 51.125 44.8125C50.875 48.2708 50.7188 51.75 50.6562 55.25C54.4688 52.0625 57.9583 48.5208 61.125 44.625C64.3125 40.7083 67.2604 36.4688 69.9688 31.9062C71.9688 34.2188 74.2604 36.2604 76.8438 38.0312C79.4271 39.8021 82.2812 41.3438 85.4062 42.6562C82.2812 45.3229 79.0208 47.7812 75.625 50.0312C72.2292 52.2604 68.75 54.1979 65.1875 55.8438C67.4583 59.6562 70.125 63.2396 73.1875 66.5938C76.2708 69.9271 79.6146 73.1458 83.2188 76.25C76.6771 77.6667 70.7917 79.8646 65.5625 82.8438C63.9167 78.4896 61.875 74.4583 59.4375 70.75C57.0208 67.0208 54.0938 63.625 50.6562 60.5625C50.6562 63.6667 50.7188 66.7396 50.8438 69.7812C50.9688 72.8229 51.1771 75.8958 51.4688 79C49.7812 79.1042 48.1458 79.25 46.5625 79.4375C44.9792 79.6458 43.3958 79.9062 41.8125 80.2188C40.25 80.5521 38.6771 80.9375 37.0938 81.375C35.5104 81.8125 33.8854 82.3021 32.2188 82.8438C35.5938 71.9062 37.2812 60.8125 37.2812 49.5625C37.2812 44 36.875 38.3854 36.0625 32.7188C38.0208 33.3646 39.9062 33.8542 41.7188 34.1875C43.5521 34.5 45.4375 34.6562 47.375 34.6562C48.1667 34.6562 48.9688 34.6354 49.7812 34.5938C50.5938 34.5521 51.4375 34.4583 52.3125 34.3125Z" fill="#FFC300"/>
</svg>
