<svg width="155" height="30" viewBox="0 0 155 30" fill="none" xmlns="http://www.w3.org/2000/svg">
<path d="M11.9883 1.86328C11.6953 3.84375 11.4727 5.8125 11.3203 7.76953C11.1797 9.71484 11.0918 11.6719 11.0566 13.6406C13.2012 11.8477 15.1641 9.85547 16.9453 7.66406C18.7383 5.46094 20.3965 3.07617 21.9199 0.509766C23.0449 1.81055 24.334 2.95898 25.7871 3.95508C27.2402 4.95117 28.8457 5.81836 30.6035 6.55664C28.8457 8.05664 27.0117 9.43945 25.1016 10.7051C23.1914 11.959 21.2344 13.0488 19.2305 13.9746C20.5078 16.1191 22.0078 18.1348 23.7305 20.0215C25.4648 21.8965 27.3457 23.707 29.373 25.4531C25.6934 26.25 22.3828 27.4863 19.4414 29.1621C18.5156 26.7129 17.3672 24.4453 15.9961 22.3594C14.6367 20.2617 12.9902 18.3516 11.0566 16.6289C11.0566 18.375 11.0918 20.1035 11.1621 21.8145C11.2324 23.5254 11.3496 25.2539 11.5137 27C10.5645 27.0586 9.64453 27.1406 8.75391 27.2461C7.86328 27.3633 6.97266 27.5098 6.08203 27.6855C5.20312 27.873 4.31836 28.0898 3.42773 28.3359C2.53711 28.582 1.62305 28.8574 0.685547 29.1621C2.58398 23.0098 3.5332 16.7695 3.5332 10.4414C3.5332 7.3125 3.30469 4.1543 2.84766 0.966797C3.94922 1.33008 5.00977 1.60547 6.0293 1.79297C7.06055 1.96875 8.12109 2.05664 9.21094 2.05664C9.65625 2.05664 10.1074 2.04492 10.5645 2.02148C11.0215 1.99805 11.4961 1.94531 11.9883 1.86328ZM41.0449 6.04688C40.7051 8.00391 40.4531 9.98438 40.2891 11.9883C40.125 13.9805 40.043 15.9961 40.043 18.0352C40.043 19.5703 40.084 21.0938 40.166 22.6055C40.2598 24.1172 40.4062 25.6055 40.6055 27.0703C40.1719 27.0703 39.7324 27.0527 39.2871 27.0176C38.8418 26.9824 38.3496 26.9648 37.8105 26.9648C36.8496 26.9648 35.8594 27.0234 34.8398 27.1406C33.8203 27.2578 32.7305 27.4277 31.5703 27.6504C31.8984 25.998 32.1621 24.3047 32.3613 22.5703C32.5605 20.8359 32.6602 19.0723 32.6602 17.2793C32.6602 15.7793 32.584 14.2852 32.4316 12.7969C32.2793 11.2969 32.0391 9.80273 31.7109 8.31445C32.4844 8.23242 33.2344 8.12695 33.9609 7.99805C34.6875 7.85742 35.4258 7.69336 36.1758 7.50586C36.9258 7.31836 37.6992 7.10742 38.4961 6.87305C39.293 6.62695 40.1426 6.35156 41.0449 6.04688ZM60.416 26.9297C60.1348 26.9297 59.9004 26.9297 59.7129 26.9297C59.5371 26.918 59.3906 26.9121 59.2734 26.9121C59.168 26.9121 59.0859 26.9121 59.0273 26.9121C58.9688 26.9004 58.916 26.8945 58.8691 26.8945C57.5566 26.8945 56.2324 26.9883 54.8965 27.1758C53.5605 27.3633 52.2012 27.6738 50.8184 28.1074C50.7949 27.8379 50.7832 27.5391 50.7832 27.2109C50.7832 26.8828 50.7832 26.584 50.7832 26.3145C50.7832 23.666 50.9883 21.123 51.3984 18.6855C51.8086 16.2363 52.5 13.8457 53.4727 11.5137C51.7969 11.7012 50.1035 12 48.3926 12.4102C46.6816 12.8086 44.9941 13.3418 43.3301 14.0098C43.541 13.166 43.6992 12.3691 43.8047 11.6191C43.9219 10.8691 43.9805 10.1426 43.9805 9.43945C43.9805 8.7832 43.9336 8.12109 43.8398 7.45312C43.7578 6.77344 43.6348 6.08789 43.4707 5.39648C45.5098 5.79492 47.5605 6.12891 49.623 6.39844C51.6973 6.66797 53.7715 6.83789 55.8457 6.9082C56.1738 6.4043 56.5078 5.89453 56.8477 5.37891C57.1992 4.86328 57.5742 4.35352 57.9727 3.84961C57.9141 4.37695 57.8672 4.89258 57.832 5.39648C57.8086 5.90039 57.7852 6.41602 57.7617 6.94336H57.8672C59.1914 6.94336 60.5215 6.89648 61.8574 6.80273C63.2051 6.70898 64.6465 6.55078 66.1816 6.32812C65.9473 6.73828 65.748 7.17188 65.584 7.62891C65.4316 8.08594 65.3555 8.64844 65.3555 9.31641C65.3555 9.69141 65.3906 10.1133 65.4609 10.582C65.543 11.0391 65.6777 11.5664 65.8652 12.1641C64.5762 11.8711 63.2461 11.6484 61.875 11.4961C60.5039 11.3438 59.1211 11.2676 57.7266 11.2676C57.7969 13.9277 58.043 16.5586 58.4648 19.1602C58.8984 21.75 59.5488 24.3398 60.416 26.9297ZM94.1836 20.373C93.6914 20.6074 93.2051 20.8359 92.7246 21.0586C92.2441 21.2695 91.7578 21.4746 91.2656 21.6738C92.3438 23.6191 93.5332 25.4531 94.834 27.1758C93.0176 27.1758 91.2832 27.3516 89.6309 27.7031C87.9785 28.0664 86.3027 28.623 84.6035 29.373C84.7324 29.0684 84.8086 28.752 84.832 28.4238C84.8672 28.1074 84.8848 27.7793 84.8848 27.4395C84.8848 26.877 84.832 26.2617 84.7266 25.5938C84.6211 24.9141 84.4629 24.2051 84.252 23.4668C83.7598 23.5371 83.2676 23.5898 82.7754 23.625C82.2832 23.6484 81.8027 23.6602 81.334 23.6602C80.502 23.6602 79.6816 23.6133 78.873 23.5195C78.0762 23.4141 77.3086 23.2441 76.5703 23.0098C76.3711 23.877 76.1895 24.7676 76.0254 25.6816C75.8613 26.584 75.6973 27.5156 75.5332 28.4766C74.9355 28.1719 74.2793 27.8965 73.5645 27.6504C72.9551 27.4512 72.2461 27.2637 71.4375 27.0879C70.6406 26.9121 69.7969 26.8242 68.9062 26.8242C68.1445 26.8242 67.3359 26.8887 66.4805 27.0176C65.625 27.1465 64.6816 27.3574 63.6504 27.6504C64.4473 26.8652 65.1914 26.0684 65.8828 25.2598C66.5859 24.4395 67.2246 23.6543 67.7988 22.9043C68.3848 22.1426 68.9004 21.4336 69.3457 20.7773C69.8027 20.1094 70.1836 19.5293 70.4883 19.0371C70.1484 18.627 69.832 18.1875 69.5391 17.7188C69.2578 17.25 68.9883 16.7461 68.7305 16.207C69.1992 16.4414 69.6621 16.6582 70.1191 16.8574C70.5762 17.0449 71.0273 17.2207 71.4727 17.3848C72.0117 16.4355 72.5801 15.4805 73.1777 14.5195C73.7754 13.5586 74.4141 12.6211 75.0938 11.707C74.9531 11.3672 74.7715 10.9805 74.5488 10.5469C74.3379 10.1133 74.1035 9.66797 73.8457 9.21094C73.5996 8.74219 73.3359 8.2793 73.0547 7.82227C72.7734 7.36523 72.498 6.94336 72.2285 6.55664C73.3535 6.86133 74.4785 7.10156 75.6035 7.27734C76.7402 7.45312 77.8711 7.57031 78.9961 7.62891C79.6406 7.10156 80.3145 6.62109 81.0176 6.1875C81.7207 5.74219 82.459 5.34961 83.2324 5.00977C82.9863 5.41992 82.7461 5.8418 82.5117 6.27539C82.2773 6.70898 82.0488 7.14844 81.8262 7.59375C82.4121 7.53516 83.0039 7.4707 83.6016 7.40039C84.1992 7.31836 84.8203 7.21289 85.4648 7.08398C85.8984 8.66602 86.373 10.207 86.8887 11.707C87.4043 13.207 87.9609 14.6836 88.5586 16.1367C89.0742 15.8438 89.584 15.5449 90.0879 15.2402C90.6035 14.9238 91.1133 14.584 91.6172 14.2207C91.9805 15.4512 92.373 16.582 92.7949 17.6133C93.2168 18.6445 93.6797 19.5645 94.1836 20.373ZM82.4062 18.5098C81.9961 17.5957 81.5449 16.6758 81.0527 15.75C80.5723 14.8125 80.0508 13.8691 79.4883 12.9199C78.7969 14.7715 78.1641 16.7402 77.5898 18.8262C77.8008 18.8496 78.0059 18.8613 78.2051 18.8613C78.416 18.8613 78.627 18.8613 78.8379 18.8613C79.4355 18.8613 80.0273 18.8379 80.6133 18.791C81.2109 18.7324 81.8086 18.6387 82.4062 18.5098ZM121.482 23.3262C121.459 24.1113 121.271 24.8145 120.92 25.4355C120.58 26.0449 120.105 26.584 119.496 27.0527C118.898 27.5215 118.195 27.9199 117.387 28.248C116.578 28.5879 115.699 28.8574 114.75 29.0566C113.801 29.2676 112.805 29.4199 111.762 29.5137C110.719 29.6191 109.664 29.6719 108.598 29.6719C107.766 29.6719 106.939 29.6426 106.119 29.584C105.299 29.5371 104.496 29.4609 103.711 29.3555C102.926 29.25 102.176 29.1211 101.461 28.9688C100.746 28.8281 100.078 28.6641 99.457 28.4766L99.7383 27.9668C99.375 28.084 99.0059 28.1953 98.6309 28.3008C98.2559 28.4062 97.8809 28.5234 97.5059 28.6523C98.1387 26.918 98.6836 25.1836 99.1406 23.4492C99.5977 21.7148 99.9551 19.957 100.213 18.1758C99.4512 17.7422 98.7715 17.2852 98.1738 16.8047C97.5762 16.3242 97.0781 15.8613 96.6797 15.416C97.2773 15.5801 97.8867 15.7324 98.5078 15.873C99.1289 16.0137 99.7676 16.1484 100.424 16.2773C100.459 15.7148 100.488 15.1641 100.512 14.625C100.547 14.0742 100.564 13.5176 100.564 12.9551V12.6738C99.9082 12.8848 99.2695 13.1074 98.6484 13.3418C98.0273 13.5762 97.418 13.8223 96.8203 14.0801C96.9961 13.4824 97.1309 12.9141 97.2246 12.375C97.3184 11.8359 97.3652 11.3086 97.3652 10.793C97.3652 9.98438 97.2598 9.20508 97.0488 8.45508C96.8379 7.69336 96.5332 6.98437 96.1348 6.32812C97.3887 6.15234 98.5195 6.00586 99.5273 5.88867C100.547 5.77148 101.49 5.67773 102.357 5.60742C103.225 5.53711 104.039 5.49023 104.801 5.4668C105.562 5.44336 106.324 5.43164 107.086 5.43164C107.73 5.43164 108.457 5.44922 109.266 5.48438C110.086 5.50781 110.936 5.56641 111.814 5.66016C112.693 5.74219 113.572 5.87695 114.451 6.06445C115.33 6.24023 116.156 6.48047 116.93 6.78516C117.715 7.07812 118.418 7.44727 119.039 7.89258C119.66 8.33789 120.152 8.87695 120.516 9.50977L121.957 8.71875C121.992 8.96484 122.016 9.22266 122.027 9.49219C122.051 9.75 122.062 9.99609 122.062 10.2305C122.062 10.9688 121.963 11.6895 121.764 12.3926C121.564 13.0957 121.283 13.7754 120.92 14.4316C120.557 15.0762 120.123 15.6914 119.619 16.2773C119.115 16.8633 118.559 17.4023 117.949 17.8945C118.535 18.1992 119.027 18.5391 119.426 18.9141C119.836 19.2891 120.17 19.6758 120.428 20.0742C120.697 20.4727 120.902 20.8652 121.043 21.252C121.184 21.627 121.283 21.9668 121.342 22.2715C121.412 22.5762 121.453 22.8281 121.465 23.0273C121.477 23.2148 121.482 23.3145 121.482 23.3262ZM109.6 20.8828C108.979 20.8828 108.369 20.8477 107.771 20.7773C107.771 21.2695 107.777 21.75 107.789 22.2188C107.801 22.6758 107.818 23.1387 107.842 23.6074C108.311 23.7598 108.75 23.8594 109.16 23.9062C109.57 23.9531 109.957 23.9766 110.32 23.9766C110.824 23.9766 111.352 23.918 111.902 23.8008C112.465 23.6836 112.975 23.4961 113.432 23.2383C113.9 22.9688 114.281 22.6172 114.574 22.1836C114.879 21.75 115.031 21.2168 115.031 20.584C115.031 20.3496 114.996 20.0625 114.926 19.7227C114.094 20.0977 113.227 20.3848 112.324 20.584C111.434 20.7832 110.525 20.8828 109.6 20.8828ZM110.76 10.793C110.279 10.793 109.805 10.8105 109.336 10.8457C108.879 10.8809 108.404 10.9277 107.912 10.9863C107.877 11.9238 107.848 12.8613 107.824 13.7988C107.812 14.7246 107.795 15.6445 107.771 16.5586C109.025 16.3242 110.039 15.832 110.812 15.082C111.586 14.332 112.072 13.2188 112.271 11.7422L113.783 11.5137C113.338 11.2793 112.863 11.1035 112.359 10.9863C111.867 10.8574 111.334 10.793 110.76 10.793ZM154.371 6.62695C151.969 8.49023 149.701 10.4531 147.568 12.5156C145.447 14.5781 143.479 16.8047 141.662 19.1953H141.732C141.627 19.8633 141.604 20.5547 141.662 21.2695C141.721 21.9844 141.838 22.7051 142.014 23.4316C142.189 24.1465 142.406 24.8555 142.664 25.5586C142.934 26.25 143.221 26.9121 143.525 27.5449C142.143 27.1699 140.818 26.8828 139.553 26.6836C138.299 26.4844 137.092 26.3848 135.932 26.3848C135.158 26.3848 134.344 26.4316 133.488 26.5254C132.645 26.6074 131.742 26.7305 130.781 26.8945C131.473 25.5703 132.047 24.2344 132.504 22.8867C132.961 21.5273 133.254 20.1152 133.383 18.6504H133.418C132.152 16.459 130.658 14.4082 128.936 12.498C127.225 10.5762 125.262 8.80078 123.047 7.17188H123.258C124.137 7.30078 124.992 7.40039 125.824 7.4707C126.668 7.5293 127.506 7.55859 128.338 7.55859C130.166 7.55859 132.029 7.30664 133.928 6.80273C134.9 9.55664 136.277 11.8242 138.059 13.6055C139.008 12.7031 139.834 11.666 140.537 10.4941C141.252 9.32227 141.832 8.04492 142.277 6.66211C143.227 6.87305 144.146 7.03125 145.037 7.13672C145.939 7.23047 146.807 7.27734 147.639 7.27734C148.658 7.27734 149.707 7.22461 150.785 7.11914C151.863 7.00195 153.059 6.83789 154.371 6.62695Z" fill="#FFC300"/>
</svg>
