<svg width="308" height="59" viewBox="0 0 308 59" fill="none" xmlns="http://www.w3.org/2000/svg">
<path d="M22.9766 2.72656C22.3906 6.6875 21.9453 10.625 21.6406 14.5391C21.3594 18.4297 21.1836 22.3438 21.1133 26.2812C25.4023 22.6953 29.3281 18.7109 32.8906 14.3281C36.4766 9.92188 39.793 5.15234 42.8398 0.0195312C45.0898 2.62109 47.668 4.91797 50.5742 6.91016C53.4805 8.90234 56.6914 10.6367 60.207 12.1133C56.6914 15.1133 53.0234 17.8789 49.2031 20.4102C45.3828 22.918 41.4688 25.0977 37.4609 26.9492C40.0156 31.2383 43.0156 35.2695 46.4609 39.043C49.9297 42.793 53.6914 46.4141 57.7461 49.9062C50.3867 51.5 43.7656 53.9727 37.8828 57.3242C36.0312 52.4258 33.7344 47.8906 30.9922 43.7188C28.2734 39.5234 24.9805 35.7031 21.1133 32.2578C21.1133 35.75 21.1836 39.207 21.3242 42.6289C21.4648 46.0508 21.6992 49.5078 22.0273 53C20.1289 53.1172 18.2891 53.2812 16.5078 53.4922C14.7266 53.7266 12.9453 54.0195 11.1641 54.3711C9.40625 54.7461 7.63672 55.1797 5.85547 55.6719C4.07422 56.1641 2.24609 56.7148 0.371094 57.3242C4.16797 45.0195 6.06641 32.5391 6.06641 19.8828C6.06641 13.625 5.60938 7.30859 4.69531 0.933594C6.89844 1.66016 9.01953 2.21094 11.0586 2.58594C13.1211 2.9375 15.2422 3.11328 17.4219 3.11328C18.3125 3.11328 19.2148 3.08984 20.1289 3.04297C21.043 2.99609 21.9922 2.89063 22.9766 2.72656ZM81.0898 11.0938C80.4102 15.0078 79.9062 18.9688 79.5781 22.9766C79.25 26.9609 79.0859 30.9922 79.0859 35.0703C79.0859 38.1406 79.168 41.1875 79.332 44.2109C79.5195 47.2344 79.8125 50.2109 80.2109 53.1406C79.3438 53.1406 78.4648 53.1055 77.5742 53.0352C76.6836 52.9648 75.6992 52.9297 74.6211 52.9297C72.6992 52.9297 70.7188 53.0469 68.6797 53.2812C66.6406 53.5156 64.4609 53.8555 62.1406 54.3008C62.7969 50.9961 63.3242 47.6094 63.7227 44.1406C64.1211 40.6719 64.3203 37.1445 64.3203 33.5586C64.3203 30.5586 64.168 27.5703 63.8633 24.5938C63.5586 21.5938 63.0781 18.6055 62.4219 15.6289C63.9688 15.4648 65.4688 15.2539 66.9219 14.9961C68.375 14.7148 69.8516 14.3867 71.3516 14.0117C72.8516 13.6367 74.3984 13.2148 75.9922 12.7461C77.5859 12.2539 79.2852 11.7031 81.0898 11.0938ZM119.832 52.8594C119.27 52.8594 118.801 52.8594 118.426 52.8594C118.074 52.8359 117.781 52.8242 117.547 52.8242C117.336 52.8242 117.172 52.8242 117.055 52.8242C116.938 52.8008 116.832 52.7891 116.738 52.7891C114.113 52.7891 111.465 52.9766 108.793 53.3516C106.121 53.7266 103.402 54.3477 100.637 55.2148C100.59 54.6758 100.566 54.0781 100.566 53.4219C100.566 52.7656 100.566 52.168 100.566 51.6289C100.566 46.332 100.977 41.2461 101.797 36.3711C102.617 31.4727 104 26.6914 105.945 22.0273C102.594 22.4023 99.207 23 95.7852 23.8203C92.3633 24.6172 88.9883 25.6836 85.6602 27.0195C86.082 25.332 86.3984 23.7383 86.6094 22.2383C86.8438 20.7383 86.9609 19.2852 86.9609 17.8789C86.9609 16.5664 86.8672 15.2422 86.6797 13.9062C86.5156 12.5469 86.2695 11.1758 85.9414 9.79297C90.0195 10.5898 94.1211 11.2578 98.2461 11.7969C102.395 12.3359 106.543 12.6758 110.691 12.8164C111.348 11.8086 112.016 10.7891 112.695 9.75781C113.398 8.72656 114.148 7.70703 114.945 6.69922C114.828 7.75391 114.734 8.78516 114.664 9.79297C114.617 10.8008 114.57 11.832 114.523 12.8867H114.734C117.383 12.8867 120.043 12.793 122.715 12.6055C125.41 12.418 128.293 12.1016 131.363 11.6562C130.895 12.4766 130.496 13.3438 130.168 14.2578C129.863 15.1719 129.711 16.2969 129.711 17.6328C129.711 18.3828 129.781 19.2266 129.922 20.1641C130.086 21.0781 130.355 22.1328 130.73 23.3281C128.152 22.7422 125.492 22.2969 122.75 21.9922C120.008 21.6875 117.242 21.5352 114.453 21.5352C114.594 26.8555 115.086 32.1172 115.93 37.3203C116.797 42.5 118.098 47.6797 119.832 52.8594ZM187.367 39.7461C186.383 40.2148 185.41 40.6719 184.449 41.1172C183.488 41.5391 182.516 41.9492 181.531 42.3477C183.688 46.2383 186.066 49.9062 188.668 53.3516C185.035 53.3516 181.566 53.7031 178.262 54.4062C174.957 55.1328 171.605 56.2461 168.207 57.7461C168.465 57.1367 168.617 56.5039 168.664 55.8477C168.734 55.2148 168.77 54.5586 168.77 53.8789C168.77 52.7539 168.664 51.5234 168.453 50.1875C168.242 48.8281 167.926 47.4102 167.504 45.9336C166.52 46.0742 165.535 46.1797 164.551 46.25C163.566 46.2969 162.605 46.3203 161.668 46.3203C160.004 46.3203 158.363 46.2266 156.746 46.0391C155.152 45.8281 153.617 45.4883 152.141 45.0195C151.742 46.7539 151.379 48.5352 151.051 50.3633C150.723 52.168 150.395 54.0312 150.066 55.9531C148.871 55.3438 147.559 54.793 146.129 54.3008C144.91 53.9023 143.492 53.5273 141.875 53.1758C140.281 52.8242 138.594 52.6484 136.812 52.6484C135.289 52.6484 133.672 52.7773 131.961 53.0352C130.25 53.293 128.363 53.7148 126.301 54.3008C127.895 52.7305 129.383 51.1367 130.766 49.5195C132.172 47.8789 133.449 46.3086 134.598 44.8086C135.77 43.2852 136.801 41.8672 137.691 40.5547C138.605 39.2188 139.367 38.0586 139.977 37.0742C139.297 36.2539 138.664 35.375 138.078 34.4375C137.516 33.5 136.977 32.4922 136.461 31.4141C137.398 31.8828 138.324 32.3164 139.238 32.7148C140.152 33.0898 141.055 33.4414 141.945 33.7695C143.023 31.8711 144.16 29.9609 145.355 28.0391C146.551 26.1172 147.828 24.2422 149.188 22.4141C148.906 21.7344 148.543 20.9609 148.098 20.0938C147.676 19.2266 147.207 18.3359 146.691 17.4219C146.199 16.4844 145.672 15.5586 145.109 14.6445C144.547 13.7305 143.996 12.8867 143.457 12.1133C145.707 12.7227 147.957 13.2031 150.207 13.5547C152.48 13.9062 154.742 14.1406 156.992 14.2578C158.281 13.2031 159.629 12.2422 161.035 11.375C162.441 10.4844 163.918 9.69922 165.465 9.01953C164.973 9.83984 164.492 10.6836 164.023 11.5508C163.555 12.418 163.098 13.2969 162.652 14.1875C163.824 14.0703 165.008 13.9414 166.203 13.8008C167.398 13.6367 168.641 13.4258 169.93 13.168C170.797 16.332 171.746 19.4141 172.777 22.4141C173.809 25.4141 174.922 28.3672 176.117 31.2734C177.148 30.6875 178.168 30.0898 179.176 29.4805C180.207 28.8477 181.227 28.168 182.234 27.4414C182.961 29.9023 183.746 32.1641 184.59 34.2266C185.434 36.2891 186.359 38.1289 187.367 39.7461ZM163.812 36.0195C162.992 34.1914 162.09 32.3516 161.105 30.5C160.145 28.625 159.102 26.7383 157.977 24.8398C156.594 28.543 155.328 32.4805 154.18 36.6523C154.602 36.6992 155.012 36.7227 155.41 36.7227C155.832 36.7227 156.254 36.7227 156.676 36.7227C157.871 36.7227 159.055 36.6758 160.227 36.582C161.422 36.4648 162.617 36.2773 163.812 36.0195ZM241.965 45.6523C241.918 47.2227 241.543 48.6289 240.84 49.8711C240.16 51.0898 239.211 52.168 237.992 53.1055C236.797 54.043 235.391 54.8398 233.773 55.4961C232.156 56.1758 230.398 56.7148 228.5 57.1133C226.602 57.5352 224.609 57.8398 222.523 58.0273C220.438 58.2383 218.328 58.3438 216.195 58.3438C214.531 58.3438 212.879 58.2852 211.238 58.168C209.598 58.0742 207.992 57.9219 206.422 57.7109C204.852 57.5 203.352 57.2422 201.922 56.9375C200.492 56.6562 199.156 56.3281 197.914 55.9531L198.477 54.9336C197.75 55.168 197.012 55.3906 196.262 55.6016C195.512 55.8125 194.762 56.0469 194.012 56.3047C195.277 52.8359 196.367 49.3672 197.281 45.8984C198.195 42.4297 198.91 38.9141 199.426 35.3516C197.902 34.4844 196.543 33.5703 195.348 32.6094C194.152 31.6484 193.156 30.7227 192.359 29.832C193.555 30.1602 194.773 30.4648 196.016 30.7461C197.258 31.0273 198.535 31.2969 199.848 31.5547C199.918 30.4297 199.977 29.3281 200.023 28.25C200.094 27.1484 200.129 26.0352 200.129 24.9102V24.3477C198.816 24.7695 197.539 25.2148 196.297 25.6836C195.055 26.1523 193.836 26.6445 192.641 27.1602C192.992 25.9648 193.262 24.8281 193.449 23.75C193.637 22.6719 193.73 21.6172 193.73 20.5859C193.73 18.9688 193.52 17.4102 193.098 15.9102C192.676 14.3867 192.066 12.9687 191.27 11.6562C193.777 11.3047 196.039 11.0117 198.055 10.7773C200.094 10.543 201.98 10.3555 203.715 10.2148C205.449 10.0742 207.078 9.98047 208.602 9.93359C210.125 9.88672 211.648 9.86328 213.172 9.86328C214.461 9.86328 215.914 9.89844 217.531 9.96875C219.172 10.0156 220.871 10.1328 222.629 10.3203C224.387 10.4844 226.145 10.7539 227.902 11.1289C229.66 11.4805 231.312 11.9609 232.859 12.5703C234.43 13.1563 235.836 13.8945 237.078 14.7852C238.32 15.6758 239.305 16.7539 240.031 18.0195L242.914 16.4375C242.984 16.9297 243.031 17.4453 243.055 17.9844C243.102 18.5 243.125 18.9922 243.125 19.4609C243.125 20.9375 242.926 22.3789 242.527 23.7852C242.129 25.1914 241.566 26.5508 240.84 27.8633C240.113 29.1523 239.246 30.3828 238.238 31.5547C237.23 32.7266 236.117 33.8047 234.898 34.7891C236.07 35.3984 237.055 36.0781 237.852 36.8281C238.672 37.5781 239.34 38.3516 239.855 39.1484C240.395 39.9453 240.805 40.7305 241.086 41.5039C241.367 42.2539 241.566 42.9336 241.684 43.543C241.824 44.1523 241.906 44.6562 241.93 45.0547C241.953 45.4297 241.965 45.6289 241.965 45.6523ZM218.199 40.7656C216.957 40.7656 215.738 40.6953 214.543 40.5547C214.543 41.5391 214.555 42.5 214.578 43.4375C214.602 44.3516 214.637 45.2773 214.684 46.2148C215.621 46.5195 216.5 46.7188 217.32 46.8125C218.141 46.9062 218.914 46.9531 219.641 46.9531C220.648 46.9531 221.703 46.8359 222.805 46.6016C223.93 46.3672 224.949 45.9922 225.863 45.4766C226.801 44.9375 227.562 44.2344 228.148 43.3672C228.758 42.5 229.062 41.4336 229.062 40.168C229.062 39.6992 228.992 39.125 228.852 38.4453C227.188 39.1953 225.453 39.7695 223.648 40.168C221.867 40.5664 220.051 40.7656 218.199 40.7656ZM220.52 20.5859C219.559 20.5859 218.609 20.6211 217.672 20.6914C216.758 20.7617 215.809 20.8555 214.824 20.9727C214.754 22.8477 214.695 24.7227 214.648 26.5977C214.625 28.4492 214.59 30.2891 214.543 32.1172C217.051 31.6484 219.078 30.6641 220.625 29.1641C222.172 27.6641 223.145 25.4375 223.543 22.4844L226.566 22.0273C225.676 21.5586 224.727 21.207 223.719 20.9727C222.734 20.7148 221.668 20.5859 220.52 20.5859ZM307.742 12.2539C302.938 15.9805 298.402 19.9062 294.137 24.0312C289.895 28.1562 285.957 32.6094 282.324 37.3906H282.465C282.254 38.7266 282.207 40.1094 282.324 41.5391C282.441 42.9688 282.676 44.4102 283.027 45.8633C283.379 47.293 283.812 48.7109 284.328 50.1172C284.867 51.5 285.441 52.8242 286.051 54.0898C283.285 53.3398 280.637 52.7656 278.105 52.3672C275.598 51.9688 273.184 51.7695 270.863 51.7695C269.316 51.7695 267.688 51.8633 265.977 52.0508C264.289 52.2148 262.484 52.4609 260.562 52.7891C261.945 50.1406 263.094 47.4688 264.008 44.7734C264.922 42.0547 265.508 39.2305 265.766 36.3008H265.836C263.305 31.918 260.316 27.8164 256.871 23.9961C253.449 20.1523 249.523 16.6016 245.094 13.3438H245.516C247.273 13.6016 248.984 13.8008 250.648 13.9414C252.336 14.0586 254.012 14.1172 255.676 14.1172C259.332 14.1172 263.059 13.6133 266.855 12.6055C268.801 18.1133 271.555 22.6484 275.117 26.2109C277.016 24.4062 278.668 22.332 280.074 19.9883C281.504 17.6445 282.664 15.0898 283.555 12.3242C285.453 12.7461 287.293 13.0625 289.074 13.2734C290.879 13.4609 292.613 13.5547 294.277 13.5547C296.316 13.5547 298.414 13.4492 300.57 13.2383C302.727 13.0039 305.117 12.6758 307.742 12.2539Z" fill="#003566"/>
</svg>
