<svg width="575" height="417" viewBox="0 0 575 417" fill="none" xmlns="http://www.w3.org/2000/svg">
<path d="M366.419 312.612V413.134H114.703C86.0231 413.134 62.6891 390.586 62.6891 362.873C62.6891 335.16 86.0231 312.612 114.703 312.612H366.419Z" fill="#F2F2F2"/>
<path d="M372.602 412.361C372.601 413.386 372.194 414.369 371.469 415.094C370.745 415.819 369.762 416.226 368.737 416.227H110.219C96.1786 416.227 82.7131 410.646 72.7849 400.713C62.8567 390.78 57.2791 377.307 57.2791 363.26C57.2791 349.212 62.8567 335.739 72.7849 325.806C82.7131 315.873 96.1786 310.292 110.219 310.292H368.737C369.762 310.292 370.745 310.7 371.47 311.425C372.195 312.15 372.602 313.133 372.602 314.158C372.602 315.184 372.195 316.167 371.47 316.892C370.745 317.617 369.762 318.025 368.737 318.025H110.219C98.2284 318.025 86.7286 322.791 78.2497 331.274C69.7709 339.757 65.0075 351.262 65.0075 363.26C65.0075 375.257 69.7709 386.762 78.2497 395.245C86.7286 403.729 98.2284 408.494 110.219 408.494H368.737C369.762 408.495 370.745 408.902 371.469 409.627C372.194 410.352 372.601 411.335 372.602 412.361Z" fill="#FFC300"/>
<path d="M366.419 335.809H95.9215C95.7166 335.809 95.52 335.728 95.3751 335.583C95.2301 335.438 95.1487 335.241 95.1487 335.036C95.1487 334.831 95.2301 334.634 95.3751 334.489C95.52 334.344 95.7166 334.263 95.9215 334.263H366.419C366.624 334.263 366.82 334.344 366.965 334.489C367.11 334.634 367.192 334.831 367.192 335.036C367.192 335.241 367.11 335.438 366.965 335.583C366.82 335.728 366.624 335.809 366.419 335.809Z" fill="#CCCCCC"/>
<path d="M366.419 354.367H95.9215C95.7166 354.367 95.52 354.286 95.3751 354.141C95.2301 353.996 95.1487 353.799 95.1487 353.594C95.1487 353.389 95.2301 353.192 95.3751 353.047C95.52 352.902 95.7166 352.821 95.9215 352.821H366.419C366.624 352.821 366.82 352.902 366.965 353.047C367.11 353.192 367.192 353.389 367.192 353.594C367.192 353.799 367.11 353.996 366.965 354.141C366.82 354.286 366.624 354.367 366.419 354.367Z" fill="#CCCCCC"/>
<path d="M366.419 372.925H95.9215C95.7166 372.925 95.52 372.844 95.3751 372.699C95.2301 372.554 95.1487 372.357 95.1487 372.152C95.1487 371.947 95.2301 371.75 95.3751 371.605C95.52 371.46 95.7166 371.379 95.9215 371.379H366.419C366.624 371.379 366.82 371.46 366.965 371.605C367.11 371.75 367.192 371.947 367.192 372.152C367.192 372.357 367.11 372.554 366.965 372.699C366.82 372.844 366.624 372.925 366.419 372.925Z" fill="#CCCCCC"/>
<path d="M366.419 391.483H95.9215C95.7166 391.483 95.52 391.401 95.3751 391.256C95.2301 391.111 95.1487 390.915 95.1487 390.71C95.1487 390.505 95.2301 390.308 95.3751 390.163C95.52 390.018 95.7166 389.936 95.9215 389.936H366.419C366.624 389.936 366.82 390.018 366.965 390.163C367.11 390.308 367.192 390.505 367.192 390.71C367.192 390.915 367.11 391.111 366.965 391.256C366.82 391.401 366.624 391.483 366.419 391.483Z" fill="#CCCCCC"/>
<path d="M560.958 331.534L497.921 409.808L301.915 251.796C279.583 233.792 275.552 201.587 292.931 180.007C310.31 158.427 342.62 155.518 364.952 173.521L560.958 331.534Z" fill="#F2F2F2"/>
<path d="M503.221 413.087C502.577 413.885 501.644 414.395 500.625 414.505C499.606 414.615 498.585 414.315 497.787 413.672L296.484 251.39C285.551 242.576 278.565 229.777 277.063 215.81C275.562 201.843 279.667 187.851 288.476 176.912C297.286 165.973 310.078 158.984 324.038 157.482C337.998 155.979 351.983 160.087 362.916 168.9L564.219 331.183C564.614 331.501 564.943 331.895 565.186 332.34C565.43 332.786 565.583 333.275 565.638 333.78C565.692 334.285 565.647 334.796 565.504 335.283C565.361 335.771 565.123 336.225 564.805 336.621C564.486 337.016 564.093 337.345 563.647 337.588C563.202 337.832 562.713 337.985 562.208 338.039C561.703 338.093 561.193 338.047 560.706 337.904C560.219 337.761 559.765 337.523 559.37 337.204L358.067 174.921C353.444 171.192 348.132 168.41 342.434 166.734C336.736 165.059 330.764 164.523 324.859 165.157C318.954 165.792 313.232 167.584 308.02 170.431C302.807 173.279 298.207 177.126 294.481 181.753C290.754 186.379 287.976 191.695 286.304 197.397C284.631 203.098 284.098 209.073 284.735 214.981C285.371 220.888 287.164 226.613 290.012 231.827C292.86 237.041 296.707 241.642 301.333 245.368L502.636 407.651C503.434 408.295 503.943 409.229 504.053 410.248C504.163 411.267 503.863 412.289 503.221 413.087Z" fill="#CCCCCC"/>
<path d="M546.412 349.597L335.781 179.795C335.702 179.731 335.636 179.652 335.587 179.563C335.539 179.474 335.508 179.376 335.497 179.275C335.486 179.174 335.495 179.072 335.524 178.975C335.553 178.877 335.6 178.787 335.664 178.708C335.727 178.628 335.806 178.563 335.895 178.514C335.984 178.465 336.082 178.435 336.183 178.424C336.284 178.413 336.386 178.422 336.483 178.451C336.581 178.479 336.671 178.527 336.75 178.591L547.381 348.393C547.461 348.457 547.526 348.535 547.575 348.624C547.624 348.714 547.655 348.812 547.666 348.913C547.676 349.014 547.667 349.116 547.639 349.213C547.61 349.311 547.563 349.402 547.499 349.481C547.435 349.56 547.357 349.626 547.267 349.675C547.178 349.723 547.08 349.754 546.979 349.765C546.878 349.775 546.776 349.766 546.679 349.737C546.581 349.709 546.491 349.661 546.412 349.597V349.597Z" fill="#CCCCCC"/>
<path d="M534.774 364.048L324.143 194.245C323.984 194.117 323.882 193.93 323.86 193.726C323.838 193.522 323.898 193.318 324.027 193.159C324.155 192.999 324.342 192.897 324.545 192.875C324.749 192.853 324.953 192.913 325.113 193.041L535.744 362.844C535.823 362.907 535.889 362.986 535.937 363.075C535.986 363.164 536.017 363.262 536.028 363.363C536.039 363.464 536.03 363.566 536.001 363.664C535.972 363.762 535.925 363.852 535.861 363.932C535.797 364.011 535.719 364.076 535.63 364.125C535.54 364.174 535.443 364.204 535.342 364.215C535.241 364.226 535.138 364.217 535.041 364.188C534.944 364.159 534.853 364.112 534.774 364.048Z" fill="#CCCCCC"/>
<path d="M523.136 378.499L312.505 208.696C312.346 208.567 312.244 208.381 312.222 208.177C312.2 207.973 312.26 207.769 312.388 207.609C312.517 207.449 312.704 207.347 312.907 207.325C313.111 207.303 313.315 207.363 313.475 207.492L524.106 377.294C524.185 377.358 524.251 377.437 524.299 377.526C524.348 377.615 524.379 377.713 524.389 377.814C524.4 377.915 524.391 378.017 524.363 378.114C524.334 378.212 524.287 378.303 524.223 378.382C524.159 378.461 524.081 378.527 523.991 378.575C523.902 378.624 523.805 378.654 523.704 378.665C523.603 378.676 523.501 378.667 523.403 378.638C523.306 378.61 523.215 378.562 523.136 378.499V378.499Z" fill="#CCCCCC"/>
<path d="M511.499 392.949L300.868 223.147C300.789 223.083 300.723 223.004 300.674 222.915C300.626 222.826 300.595 222.728 300.584 222.627C300.573 222.526 300.582 222.424 300.611 222.327C300.64 222.229 300.687 222.139 300.751 222.06C300.814 221.98 300.893 221.915 300.982 221.866C301.071 221.817 301.169 221.787 301.27 221.776C301.371 221.765 301.473 221.774 301.57 221.803C301.668 221.831 301.758 221.879 301.837 221.943L512.468 391.745C512.548 391.809 512.613 391.887 512.662 391.977C512.711 392.066 512.742 392.164 512.753 392.265C512.764 392.366 512.754 392.468 512.726 392.565C512.697 392.663 512.65 392.754 512.586 392.833C512.522 392.912 512.444 392.978 512.354 393.027C512.265 393.075 512.167 393.106 512.066 393.117C511.965 393.127 511.863 393.118 511.766 393.09C511.668 393.061 511.578 393.013 511.499 392.949Z" fill="#CCCCCC"/>
<path d="M574.227 417H0.772849C0.567877 417 0.371299 416.918 0.226362 416.773C0.0814244 416.628 0 416.432 0 416.227C0 416.022 0.0814244 415.825 0.226362 415.68C0.371299 415.535 0.567877 415.453 0.772849 415.453H574.227C574.432 415.453 574.629 415.535 574.774 415.68C574.919 415.825 575 416.022 575 416.227C575 416.432 574.919 416.628 574.774 416.773C574.629 416.918 574.432 417 574.227 417Z" fill="#CCCCCC"/>
<path d="M261.286 302.046L252.451 302.046L248.249 267.949L261.289 267.95L261.286 302.046Z" fill="#FFB8B8"/>
<path d="M246.139 299.52H263.179V310.254H235.41C235.41 308.844 235.688 307.449 236.227 306.146C236.766 304.844 237.556 303.661 238.553 302.664C239.549 301.667 240.732 300.876 242.033 300.337C243.335 299.798 244.73 299.52 246.139 299.52Z" fill="#2F2E41"/>
<path d="M171.021 302.046L162.186 302.046L157.984 267.949L171.024 267.95L171.021 302.046Z" fill="#FFB8B8"/>
<path d="M155.874 299.52H172.914V310.254H145.146C145.146 308.844 145.423 307.449 145.962 306.146C146.502 304.844 147.292 303.661 148.288 302.664C149.284 301.667 150.467 300.876 151.769 300.337C153.07 299.798 154.465 299.52 155.874 299.52Z" fill="#2F2E41"/>
<path d="M200.532 49.1267V45.2604C200.532 38.6466 203.158 32.3038 207.832 27.6272C212.506 22.9505 218.846 20.3232 225.456 20.3232H225.456C232.067 20.3232 238.406 22.9505 243.081 27.6272C247.755 32.3038 250.381 38.6466 250.381 45.2604V49.1267C250.381 53.8947 248.488 58.4675 245.118 61.839C241.748 65.2105 237.178 67.1046 232.412 67.1046H218.501C216.141 67.1046 213.804 66.6396 211.624 65.7361C209.444 64.8326 207.463 63.5084 205.795 61.839C204.126 60.1696 202.803 58.1877 201.9 56.0065C200.997 53.8253 200.532 51.4876 200.532 49.1267Z" fill="#2F2E41"/>
<path d="M225.456 68.4349C235.94 68.4349 244.438 59.932 244.438 49.4432C244.438 38.9544 235.94 30.4515 225.456 30.4515C214.973 30.4515 206.474 38.9544 206.474 49.4432C206.474 59.932 214.973 68.4349 225.456 68.4349Z" fill="#FFB8B8"/>
<path d="M122.207 114.715C122.977 113.987 123.897 113.437 124.903 113.104C125.909 112.771 126.975 112.662 128.027 112.786C129.08 112.909 130.092 113.262 130.993 113.82C131.894 114.377 132.662 115.126 133.243 116.012L149.515 112.933L153.797 122.37L130.757 126.396C129.204 127.273 127.383 127.55 125.639 127.174C123.895 126.798 122.35 125.795 121.296 124.355C120.242 122.915 119.753 121.139 119.921 119.362C120.088 117.585 120.902 115.932 122.207 114.715V114.715Z" fill="#FFB8B8"/>
<path d="M210.658 80.3952L210.87 80.7178L184.187 98.3048L139.162 112.69C138.565 112.882 138.053 113.274 137.714 113.801C137.374 114.328 137.227 114.957 137.298 115.58L138.28 124.045C138.324 124.419 138.445 124.781 138.637 125.106C138.828 125.431 139.085 125.712 139.391 125.932C139.698 126.151 140.046 126.305 140.416 126.382C140.785 126.459 141.166 126.458 141.534 126.379L183.909 117.291C185.96 116.854 187.899 115.999 189.606 114.781L219.584 93.4422C220.67 92.6644 221.537 91.6185 222.101 90.4061C222.664 89.1938 222.904 87.8563 222.797 86.5236C222.687 85.1892 222.232 83.9063 221.476 82.8013C220.721 81.6963 219.69 80.8071 218.487 80.2213C217.283 79.6355 215.948 79.3732 214.613 79.4603C213.277 79.5473 211.988 79.9807 210.87 80.7178L210.658 80.3952Z" fill="#CCCCCC"/>
<path d="M252.608 292.371C251.93 292.371 251.267 292.173 250.699 291.802C250.131 291.431 249.683 290.903 249.411 290.282L208.906 190.146C208.811 189.929 208.652 189.746 208.451 189.621C208.249 189.497 208.014 189.438 207.778 189.451C207.541 189.465 207.315 189.55 207.128 189.696C206.942 189.842 206.805 190.042 206.735 190.268L173.689 287.754C173.55 288.208 173.319 288.628 173.011 288.989C172.703 289.35 172.325 289.645 171.899 289.854C171.473 290.063 171.009 290.184 170.535 290.207C170.061 290.23 169.588 290.156 169.144 289.99L158.062 285.832C157.461 285.608 156.933 285.222 156.538 284.716C156.143 284.211 155.895 283.605 155.823 282.967C150.838 239.517 194.311 129.842 194.751 128.739L194.873 128.434L234.502 137.205L234.585 137.295C250.395 154.552 263.391 263.397 265.836 285.041C265.927 285.823 265.749 286.613 265.332 287.28C264.915 287.947 264.283 288.452 263.54 288.712L253.759 292.173C253.389 292.304 253 292.371 252.608 292.371Z" fill="#2F2E41"/>
<path d="M218.463 140.735C208.862 140.735 198.157 138.82 194.862 130.914L194.786 130.733L194.889 130.564C197.49 126.295 200.927 119.012 199.079 117.644C195.44 114.952 193.674 110.523 193.831 104.48C194.171 91.3609 203.105 79.7135 216.062 75.4966H216.063C219.679 74.3385 223.36 73.3904 227.086 72.6569C229.802 72.1086 232.606 72.1689 235.296 72.8336C237.986 73.4983 240.496 74.7508 242.645 76.5013C244.821 78.2632 246.58 80.4854 247.795 83.0084C249.011 85.5313 249.653 88.2922 249.675 91.0929C249.811 105.112 247.653 124.639 236.604 138.044C236.086 138.666 235.366 139.086 234.569 139.228C229.254 140.19 223.865 140.694 218.463 140.735Z" fill="#CCCCCC"/>
<path d="M214.892 140.21C215.414 138.335 216.655 136.741 218.345 135.777C220.035 134.812 222.038 134.553 223.917 135.057C224.301 135.164 224.675 135.303 225.036 135.472L237.392 124.222L245.984 130.014L228.315 145.657C227.518 147.096 226.262 148.227 224.747 148.87C223.233 149.513 221.547 149.63 219.958 149.204C219.033 148.95 218.167 148.516 217.41 147.925C216.654 147.335 216.021 146.6 215.55 145.764C215.079 144.928 214.778 144.006 214.665 143.053C214.552 142.1 214.629 141.133 214.892 140.21Z" fill="#FFB8B8"/>
<path d="M235.434 140.353C234.633 140.353 233.856 140.076 233.235 139.568L228.363 135.584C227.957 135.252 227.631 134.832 227.41 134.357C227.189 133.881 227.078 133.361 227.086 132.836C227.094 132.311 227.221 131.795 227.457 131.326C227.692 130.858 228.031 130.448 228.447 130.129L248.883 114.448C249.125 114.261 249.284 113.986 249.325 113.683C249.366 113.38 249.286 113.072 249.102 112.828L236.489 96.1442C235.023 94.2123 234.288 91.824 234.414 89.402C234.539 86.98 235.517 84.6806 237.175 82.9107C238.92 81.0247 241.31 79.864 243.871 79.6591C246.432 79.4542 248.976 80.2199 250.999 81.8044L251.079 81.8886L264.25 100.758C265.674 101.875 266.821 103.306 267.601 104.94C268.38 106.574 268.772 108.367 268.745 110.177C268.718 111.988 268.273 113.768 267.445 115.378C266.617 116.988 265.428 118.385 263.971 119.459L237.505 139.671C236.905 140.114 236.18 140.353 235.434 140.353Z" fill="#CCCCCC"/>
<path d="M208.642 44.1005V34.6776L225.456 27.3318L241.489 34.6776V44.1005C241.489 44.5106 241.326 44.904 241.036 45.194C240.746 45.484 240.353 45.647 239.943 45.647H210.188C209.778 45.647 209.385 45.484 209.095 45.194C208.805 44.904 208.642 44.5106 208.642 44.1005Z" fill="#2F2E41"/>
<path d="M224.684 21.5732C222.212 13.6564 227.404 4.58324 235.08 1.44953C242.756 -1.68417 251.938 0.506384 258.415 5.68374C264.892 10.8611 268.91 18.6158 271.039 26.6318C273.168 34.6479 273.573 43.0067 273.966 51.2917C283.396 53.0248 289.811 64.2159 286.544 73.2351C283.277 82.2542 271.186 86.735 262.835 82.0209C254.484 77.3068 252.066 64.6348 258.093 57.1737C260.944 53.6433 262.537 49.2618 262.619 44.7233C262.701 40.1848 261.267 35.7487 258.545 32.1175C255.822 28.4863 251.967 25.8677 247.589 24.6764C243.211 23.4851 238.561 23.7892 234.376 25.5405C229.728 27.4851 223.896 22.4325 224.684 21.5732Z" fill="#2F2E41"/>
<path d="M118.721 78.1618C107.43 78.0876 96.2801 75.6444 85.9919 70.99C85.3795 70.7169 84.8596 70.2715 84.4958 69.708C84.1319 69.1446 83.9396 68.4874 83.9424 67.8166V39.6566C83.9434 38.7341 84.3102 37.8496 84.9622 37.1973C85.6142 36.5449 86.4982 36.178 87.4202 36.177H150.021C150.943 36.178 151.827 36.545 152.479 37.1973C153.131 37.8496 153.498 38.7341 153.499 39.6566V67.8166C153.502 68.4875 153.309 69.1446 152.946 69.7081C152.582 70.2715 152.062 70.7169 151.449 70.99C141.161 75.6444 130.011 78.0876 118.721 78.1618Z" fill="#FFC300"/>
<path d="M118.712 55.3488C118.248 55.3492 117.788 55.2568 117.361 55.0769L67.7189 34.1223C67.0787 33.8521 66.5341 33.3962 66.1553 32.8135C65.7765 32.2308 65.5809 31.5478 65.5936 30.8528C65.6063 30.1578 65.8269 29.4825 66.2268 28.914C66.6267 28.3455 67.1876 27.9099 67.8372 27.6634L117.479 8.82117C118.279 8.51629 119.163 8.51818 119.961 8.82646L168.938 27.6686C169.584 27.9172 170.142 28.3529 170.539 28.92C170.936 29.4871 171.155 30.1598 171.167 30.8521C171.18 31.5444 170.986 32.2248 170.61 32.8062C170.235 33.3876 169.694 33.8436 169.057 34.1159L120.08 55.0701C119.647 55.2544 119.182 55.3492 118.712 55.3488Z" fill="#FFC300"/>
<path d="M89.7388 72.9061C92.2998 72.9061 94.3759 70.829 94.3759 68.2667C94.3759 65.7044 92.2998 63.6272 89.7388 63.6272C87.1778 63.6272 85.1017 65.7044 85.1017 68.2667C85.1017 70.829 87.1778 72.9061 89.7388 72.9061Z" fill="#3F3D56"/>
<path opacity="0.2" d="M169.227 31.1415L120.249 52.0958C119.867 52.2591 119.456 52.3438 119.041 52.3448C118.626 52.3458 118.215 52.2631 117.832 52.1016L68.1903 31.1476C67.5669 30.8907 67.0468 30.4333 66.7122 29.8477C66.4933 30.2275 66.3576 30.6495 66.3143 31.0857C66.2709 31.5219 66.3207 31.9624 66.4605 32.3779C66.6003 32.7933 66.8269 33.1743 67.1251 33.4954C67.4233 33.8166 67.7864 34.0706 68.1903 34.2406L117.832 55.1946C118.215 55.3561 118.626 55.4388 119.041 55.4378C119.456 55.4368 119.867 55.3521 120.249 55.1887L169.227 34.2344C169.629 34.063 169.99 33.8082 170.286 33.4869C170.582 33.1656 170.807 32.7851 170.945 32.3705C171.083 31.9559 171.132 31.5167 171.088 31.0818C171.045 30.6469 170.909 30.2263 170.691 29.8477C170.359 30.4286 169.844 30.8834 169.227 31.1415Z" fill="black"/>
<path d="M90.1284 68.2485C90.3334 68.2485 90.53 68.1671 90.6749 68.022C90.8199 67.877 90.9013 67.6803 90.9013 67.4753V41.6014L116.391 32.3108C116.596 32.3138 116.794 32.2353 116.941 32.0924C117.088 31.9496 117.172 31.7541 117.175 31.549C117.178 31.344 117.1 31.1461 116.957 30.9989C116.814 30.8517 116.619 30.7673 116.414 30.7643L90.9243 40.0549C90.7192 40.0502 90.5153 40.0872 90.3248 40.1636C90.1344 40.2401 89.9615 40.3544 89.8166 40.4997C89.6701 40.6432 89.5538 40.8146 89.4746 41.0039C89.3954 41.1931 89.355 41.3963 89.3556 41.6014V67.4753C89.3556 67.6803 89.437 67.877 89.582 68.022C89.7269 68.167 89.9235 68.2485 90.1284 68.2485Z" fill="#3F3D56"/>
</svg>
