<svg width="641" height="544" viewBox="0 0 641 544" fill="none" xmlns="http://www.w3.org/2000/svg">
<g clip-path="url(#clip0)">
<path d="M376.426 139.656H357.422C356.453 139.655 355.524 139.269 354.839 138.584C354.154 137.899 353.768 136.969 353.767 136V116.989C353.768 116.02 354.154 115.091 354.839 114.405C355.524 113.72 356.453 113.334 357.422 113.333H376.426C377.395 113.334 378.324 113.72 379.009 114.405C379.694 115.091 380.079 116.02 380.08 116.989V136C380.079 136.969 379.694 137.899 379.009 138.584C378.324 139.269 377.395 139.655 376.426 139.656ZM357.422 114.796C356.84 114.796 356.283 115.028 355.872 115.439C355.461 115.85 355.23 116.408 355.229 116.989V136C355.23 136.582 355.461 137.139 355.872 137.55C356.283 137.962 356.84 138.193 357.422 138.194H376.426C377.007 138.193 377.564 137.962 377.976 137.55C378.387 137.139 378.618 136.582 378.619 136V116.989C378.618 116.408 378.387 115.85 377.976 115.439C377.564 115.028 377.007 114.796 376.426 114.796H357.422Z" fill="#E6E6E6"/>
<path d="M154.956 26.3226H135.952C134.983 26.3215 134.054 25.9359 133.369 25.2506C132.684 24.5652 132.298 23.6359 132.297 22.6667V3.65591C132.298 2.68665 132.684 1.75739 133.369 1.07202C134.054 0.38664 134.983 0.00110888 135.952 0H154.956C155.925 0.00110888 156.854 0.38664 157.539 1.07202C158.224 1.75739 158.609 2.68665 158.61 3.65591V22.6667C158.609 23.6359 158.224 24.5652 157.539 25.2506C156.854 25.9359 155.925 26.3215 154.956 26.3226ZM135.952 1.46237C135.37 1.463 134.813 1.69431 134.402 2.10554C133.991 2.51677 133.76 3.07434 133.759 3.65591V22.6667C133.76 23.2482 133.991 23.8058 134.402 24.217C134.813 24.6283 135.37 24.8596 135.952 24.8602H154.956C155.537 24.8596 156.095 24.6283 156.506 24.217C156.917 23.8058 157.148 23.2482 157.149 22.6667V3.65591C157.148 3.07434 156.917 2.51677 156.506 2.10554C156.095 1.69431 155.537 1.463 154.956 1.46237H135.952Z" fill="#E6E6E6"/>
<path d="M364.731 130.151H345.727C344.758 130.149 343.829 129.764 343.144 129.079C342.459 128.393 342.073 127.464 342.072 126.495V107.484C342.073 106.515 342.459 105.585 343.144 104.9C343.829 104.215 344.758 103.829 345.727 103.828H364.731C365.7 103.829 366.629 104.215 367.314 104.9C367.999 105.585 368.384 106.515 368.385 107.484V126.495C368.384 127.464 367.999 128.393 367.314 129.079C366.629 129.764 365.7 130.149 364.731 130.151ZM345.727 105.29C345.146 105.291 344.588 105.522 344.177 105.933C343.766 106.345 343.535 106.902 343.534 107.484V126.495C343.535 127.076 343.766 127.634 344.177 128.045C344.588 128.456 345.146 128.688 345.727 128.688H364.731C365.312 128.688 365.87 128.456 366.281 128.045C366.692 127.634 366.923 127.076 366.924 126.495V107.484C366.923 106.902 366.692 106.345 366.281 105.933C365.87 105.522 365.312 105.291 364.731 105.29H345.727Z" fill="#E6E6E6"/>
<path d="M34.3534 288.817H15.3494C14.3805 288.816 13.4515 288.431 12.7664 287.745C12.0813 287.06 11.6959 286.131 11.6948 285.161V266.151C11.6959 265.181 12.0813 264.252 12.7664 263.567C13.4515 262.881 14.3805 262.496 15.3494 262.495H34.3534C35.3223 262.496 36.2512 262.881 36.9364 263.567C37.6215 264.252 38.0069 265.181 38.008 266.151V285.161C38.0069 286.131 37.6215 287.06 36.9364 287.745C36.2512 288.431 35.3223 288.816 34.3534 288.817ZM15.3494 263.957C14.768 263.958 14.2106 264.189 13.7996 264.6C13.3885 265.011 13.1572 265.569 13.1566 266.151V285.161C13.1572 285.743 13.3885 286.3 13.7996 286.712C14.2106 287.123 14.768 287.354 15.3494 287.355H34.3534C34.9348 287.354 35.4921 287.123 35.9032 286.712C36.3143 286.3 36.5455 285.743 36.5462 285.161V266.151C36.5455 265.569 36.3143 265.011 35.9032 264.6C35.4921 264.189 34.9348 263.958 34.3534 263.957H15.3494Z" fill="#E6E6E6"/>
<path d="M22.6586 279.312H3.65462C2.68569 279.311 1.75677 278.925 1.07164 278.24C0.386503 277.554 0.00110848 276.625 0 275.656V256.645C0.00110848 255.676 0.386503 254.747 1.07164 254.061C1.75677 253.376 2.68569 252.99 3.65462 252.989H22.6586C23.6276 252.99 24.5565 253.376 25.2416 254.061C25.9268 254.747 26.3121 255.676 26.3133 256.645V275.656C26.3121 276.625 25.9268 277.554 25.2416 278.24C24.5565 278.925 23.6276 279.311 22.6586 279.312ZM3.65462 254.452C3.07325 254.452 2.51588 254.684 2.1048 255.095C1.69371 255.506 1.46248 256.064 1.46185 256.645V275.656C1.46248 276.237 1.69371 276.795 2.1048 277.206C2.51588 277.618 3.07325 277.849 3.65462 277.849H22.6586C23.24 277.849 23.7974 277.618 24.2085 277.206C24.6195 276.795 24.8508 276.237 24.8514 275.656V256.645C24.8508 256.064 24.6195 255.506 24.2085 255.095C23.7974 254.684 23.24 254.452 22.6586 254.452H3.65462Z" fill="#E6E6E6"/>
<path d="M67.5588 62.9099H243.43C251.917 62.9099 260.151 65.7983 266.78 71.1004C273.408 76.4025 278.035 83.8027 279.902 92.0846L368.766 486.387C369.736 490.688 369.753 495.149 368.816 499.457C367.88 503.765 366.013 507.817 363.346 511.326C360.679 514.836 357.277 517.72 353.378 519.776C349.479 521.832 345.178 523.009 340.776 523.226L159.979 532.137C150.298 532.614 140.774 529.552 133.185 523.52C125.595 517.489 120.458 508.902 118.733 499.36L68.3236 220.584L64.5734 221.655L54.928 168.817L58.7883 167.851L44.7173 90.0349C44.1146 86.7019 44.2544 83.2769 45.1267 80.0041C45.9989 76.7313 47.5822 73.6913 49.7636 71.1008C51.945 68.5103 54.6709 66.4331 57.7468 65.0173C60.8227 63.6015 64.173 62.882 67.5588 62.91V62.9099Z" fill="#3F3D56"/>
<path d="M220.277 71.4101H240.807C246.702 71.4101 252.421 73.4271 257.013 77.1264C261.604 80.8256 264.793 85.9846 266.05 91.7468L351.348 482.833C351.839 485.084 351.838 487.416 351.346 489.667C350.854 491.919 349.882 494.037 348.497 495.879C347.111 497.72 345.345 499.24 343.318 500.336C341.291 501.432 339.052 502.077 336.753 502.228L156.541 514.043C151.457 514.376 146.428 512.825 142.414 509.686C138.4 506.547 135.682 502.039 134.779 497.023L61.9941 92.7973C61.523 90.181 61.6317 87.4932 62.3124 84.9234C62.9931 82.3537 64.2293 79.9647 65.9338 77.9251C67.6382 75.8855 69.7694 74.245 72.1768 73.1193C74.5843 71.9936 77.2094 71.4101 79.8668 71.4101H99.3423C101.227 71.4101 103.06 72.0317 104.556 73.1787C106.052 74.3257 107.128 75.9341 107.618 77.7549C108.051 79.3623 109.001 80.7822 110.322 81.7948C111.643 82.8074 113.26 83.3562 114.925 83.3562H207.381C210.64 83.3562 213.778 82.1258 216.169 79.911C218.56 77.6962 220.027 74.6602 220.277 71.4101L220.277 71.4101Z" fill="white"/>
<path d="M76.0161 137.905H271.521L292.348 231.785L94.2891 235.441L76.0161 137.905Z" fill="#003566"/>
<path d="M261.671 315.691H307.698L309.16 324.505H263.133L261.671 315.691Z" fill="#003566"/>
<path d="M299.12 270.725L103.916 274.86L103.935 275.779L299.139 271.644L299.12 270.725Z" fill="#2F2E41"/>
<path d="M305.09 297.834L106.211 302.428L106.232 303.347L305.111 298.752L305.09 297.834Z" fill="#2F2E41"/>
<path d="M280.675 410.014H326.702L328.164 418.828H282.137L280.675 410.014Z" fill="#003566"/>
<path d="M318.123 365.048L122.92 369.183L122.939 370.102L318.143 365.966L318.123 365.048Z" fill="#2F2E41"/>
<path d="M324.094 392.156L125.215 396.751L125.236 397.67L324.115 393.075L324.094 392.156Z" fill="#2F2E41"/>
<path d="M449.927 534.646L441.218 534.645L437.076 501.042L449.929 501.043L449.927 534.646Z" fill="#A0616A"/>
<path d="M452.148 543.091L424.067 543.09V542.734C424.067 539.835 425.219 537.054 427.269 535.003C429.318 532.953 432.098 531.801 434.997 531.801H434.998L452.149 531.802L452.148 543.091Z" fill="#2F2E41"/>
<path d="M558.116 528.941L549.639 530.938L537.906 499.18L550.417 496.233L558.116 528.941Z" fill="#A0616A"/>
<path d="M562.213 536.652L534.88 543.091L534.798 542.745C534.134 539.922 534.618 536.951 536.143 534.486C537.668 532.02 540.11 530.261 542.932 529.596L542.932 529.596L559.627 525.663L562.213 536.652Z" fill="#2F2E41"/>
<path d="M448.148 392.913C448.164 391.162 448.683 349.835 460.007 334.209L460.174 333.978L499.638 339.425L498.756 348.099C500.492 349.788 514.146 364.06 518.088 397.858L559.976 510.398L540.503 512.169L482.858 389.317L452.353 522.857H433.048L448.148 392.913Z" fill="#2F2E41"/>
<path d="M455.384 335.734L459.242 315.474C458.486 314.501 455.14 309.831 455.885 304.357C456.371 300.786 458.502 297.654 462.221 295.046L472.22 271.707L472.354 271.628C473.028 271.231 488.948 262.022 497.628 270.71C497.845 270.879 519.214 287.848 510.633 310.739L500.039 342.535L455.384 335.734Z" fill="#CCCCCC"/>
<path d="M441.962 363.143C443.003 363.024 444.004 362.679 444.896 362.131C445.789 361.583 446.55 360.846 447.126 359.972C447.703 359.097 448.081 358.107 448.234 357.071C448.387 356.035 448.311 354.978 448.011 353.974L468.66 339.092L456.299 334.388L438.585 349.242C436.933 349.858 435.564 351.058 434.738 352.616C433.912 354.173 433.685 355.98 434.102 357.693C434.518 359.407 435.548 360.908 436.997 361.913C438.445 362.917 440.212 363.355 441.962 363.143Z" fill="#A0616A"/>
<path d="M445.757 339.068L477.282 314.221L467.91 282.19C467.468 280.673 467.343 279.081 467.543 277.514C467.743 275.947 468.263 274.438 469.071 273.081C469.82 271.801 470.827 270.692 472.028 269.825C473.23 268.957 474.599 268.35 476.049 268.042C481.446 266.9 486.345 269.923 490.607 277.029L490.639 277.093C491.345 278.817 507.768 319.429 495.228 328.114C482.961 336.609 454.516 348.976 454.23 349.101L453.896 349.245L445.757 339.068Z" fill="#CCCCCC"/>
<path d="M487.655 262.263C498.203 262.263 506.753 253.71 506.753 243.159C506.753 232.608 498.203 224.055 487.655 224.055C477.108 224.055 468.558 232.608 468.558 243.159C468.558 253.71 477.108 262.263 487.655 262.263Z" fill="#A0616A"/>
<path d="M517.595 236.339C526.926 236.339 534.49 228.773 534.49 219.438C534.49 210.104 526.926 202.538 517.595 202.538C508.265 202.538 500.701 210.104 500.701 219.438C500.701 228.773 508.265 236.339 517.595 236.339Z" fill="#2F2E41"/>
<path d="M532.168 233.433C529.981 235.014 527.448 236.049 524.78 236.449C522.111 236.85 519.386 236.606 516.832 235.737C514.277 234.868 511.968 233.4 510.097 231.455C508.226 229.51 506.848 227.146 506.078 224.559C506.369 226.877 507.138 229.11 508.335 231.116C509.533 233.122 511.133 234.857 513.035 236.214C514.937 237.57 517.099 238.517 519.385 238.995C521.672 239.473 524.032 239.471 526.318 238.99C528.603 238.51 530.764 237.56 532.665 236.202C534.565 234.844 536.163 233.106 537.358 231.098C538.553 229.091 539.319 226.858 539.608 224.539C539.897 222.221 539.702 219.867 539.035 217.628C539.414 220.637 538.976 223.692 537.767 226.473C536.559 229.253 534.625 231.658 532.168 233.433Z" fill="#2F2E41"/>
<path d="M465.494 233.452C468.443 228.17 469.572 225.964 473.375 222.752C476.737 219.911 480.874 219.077 484.21 221.768C488.157 220.062 492.549 219.675 496.733 220.665C500.917 221.655 504.671 223.969 507.436 227.262C510.201 230.556 511.83 234.654 512.082 238.948C512.333 243.241 511.194 247.502 508.832 251.096C506.47 254.69 503.013 257.426 498.972 258.898C494.932 260.37 490.526 260.499 486.407 259.266C482.287 258.032 478.676 255.503 476.108 252.053C473.541 248.603 472.154 244.416 472.154 240.115C472.157 239.36 472.203 238.605 472.291 237.855C469.39 237.448 468.394 233.86 465.494 233.452Z" fill="#2F2E41"/>
</g>
<defs>
<clipPath id="clip0">
<rect width="641" height="544" fill="white"/>
</clipPath>
</defs>
</svg>
