<svg width="22" height="22" viewBox="0 0 22 22" fill="none" xmlns="http://www.w3.org/2000/svg">
<path d="M19.8003 19.0172L18.5406 4.8319C18.5136 4.51697 18.2482 4.27853 17.9377 4.27853H15.3463C15.3103 1.91207 13.3758 0 11.0003 0C8.62484 0 6.69028 1.91207 6.65429 4.27853H4.06288C3.74795 4.27853 3.48701 4.51697 3.46001 4.8319L2.2003 19.0172C2.2003 19.0352 2.1958 19.0532 2.1958 19.0712C2.1958 20.6863 3.67596 22 5.49805 22H16.5025C18.3246 22 19.8048 20.6863 19.8048 19.0712C19.8048 19.0532 19.8048 19.0352 19.8003 19.0172ZM11.0003 1.21472C12.7054 1.21472 14.0956 2.58241 14.1316 4.27853H7.86901C7.905 2.58241 9.29519 1.21472 11.0003 1.21472ZM16.5025 20.7853H5.49805C4.35531 20.7853 3.42852 20.0294 3.41052 19.0982L4.61625 5.49775H6.64979V7.34233C6.64979 7.67975 6.91973 7.94969 7.25715 7.94969C7.59457 7.94969 7.86451 7.67975 7.86451 7.34233V5.49775H14.1316V7.34233C14.1316 7.67975 14.4015 7.94969 14.739 7.94969C15.0764 7.94969 15.3463 7.67975 15.3463 7.34233V5.49775H17.3798L18.5901 19.0982C18.5721 20.0294 17.6408 20.7853 16.5025 20.7853Z" fill="#FFC300"/>
</svg>
