<svg width="106" height="105" viewBox="0 0 106 105" fill="none" xmlns="http://www.w3.org/2000/svg">
<g clip-path="url(#clip0)">
<path d="M89.0249 3.68726H16.919C7.88251 3.68726 0.53125 11.0385 0.53125 20.075V77.432C0.53125 86.4684 7.88251 93.8197 16.919 93.8197H72.842C75.1049 93.8197 76.939 91.9857 76.939 89.7228C76.939 87.4598 75.1049 85.6258 72.842 85.6258H57.7522L48.3325 73.4055L78.1832 35.4377L98.2782 57.6475C99.4144 58.9046 101.208 59.3311 102.789 58.7221C104.369 58.1124 105.413 56.5928 105.413 54.8989V20.075C105.413 11.0385 98.0613 3.68726 89.0249 3.68726V3.68726ZM97.2188 44.2645L81.0015 26.3396C80.1917 25.4442 79.0266 24.9497 77.8216 24.9937C76.6157 25.0361 75.489 25.6074 74.7425 26.5564L43.1721 66.7111L32.4545 52.8072C31.6791 51.8014 30.4804 51.2116 29.2097 51.2116C29.2089 51.2116 29.2081 51.2116 29.2073 51.2116C27.9367 51.2124 26.7372 51.803 25.9626 52.8104L16.9462 64.5314C15.5667 66.3255 15.9019 68.8972 17.6951 70.2767C19.4891 71.6571 22.0609 71.321 23.4412 69.5278L29.2129 62.0237L47.4067 85.6258H16.919C12.4011 85.6258 8.72511 81.9498 8.72511 77.432V20.075C8.72511 15.5571 12.4011 11.8811 16.919 11.8811H89.0249C93.5427 11.8811 97.2188 15.5571 97.2188 20.075V44.2645Z" fill="#FFD60A"/>
<path d="M29.2097 18.4362C22.4322 18.4362 16.9189 23.9494 16.9189 30.7269C16.9189 37.5045 22.4322 43.0177 29.2097 43.0177C35.9873 43.0177 41.5005 37.5045 41.5005 30.7269C41.5005 23.9494 35.9873 18.4362 29.2097 18.4362ZM29.2097 34.8239C26.9508 34.8239 25.1128 32.9859 25.1128 30.7269C25.1128 28.468 26.9508 26.63 29.2097 26.63C31.4686 26.63 33.3067 28.468 33.3067 30.7269C33.3067 32.9859 31.4686 34.8239 29.2097 34.8239Z" fill="#FFD60A"/>
<path d="M96.497 65.7437C96.485 65.7317 96.473 65.7189 96.461 65.7069C94.5245 63.7568 91.9487 62.683 89.2073 62.683C86.4739 62.683 83.9053 63.7504 81.9713 65.6893L74.0615 73.491C72.4507 75.0794 72.4331 77.6736 74.0223 79.2843C75.6106 80.8951 78.2048 80.9135 79.8156 79.3244L85.1104 74.1024V97.0972C85.1104 99.3601 86.9444 101.194 89.2073 101.194C91.4702 101.194 93.3042 99.3601 93.3042 97.0972V74.2272L98.3718 79.462C99.1752 80.2926 100.245 80.7095 101.316 80.7095C102.342 80.7095 103.37 80.3262 104.165 79.5564C105.791 77.9825 105.833 75.3891 104.259 73.7631L96.497 65.7437Z" fill="#FFD60A"/>
</g>
<defs>
<clipPath id="clip0">
<rect width="104.881" height="104.881" fill="white" transform="translate(0.53125)"/>
</clipPath>
</defs>
</svg>
